# xmcd
#
# Track frame offsets:
#	150
#	23087
#	49350
#	67720
#	85322
#	110932
#	140987
#	153784
#	180820
#	205092
#	231380
#
# Disc length: 3349 seconds
#
# Revision: 1
# Processed by: cddbd v1.5.1PL0 Copyright (c) Steve Scherf et al.
# Submitted via: CDex 1.50Beta5
#
DISCID=920d130b
DTITLE=前田亘輝 - HARD PRESSED
DYEAR=1998
DGENRE=
TTITLE0=Go For Broke
TTITLE1=Try Boy,Try Girl
TTITLE2=Don’t You Got Big Balls!
TTITLE3=Nobody Can Press My Soul
TTITLE4=Get No Answer
TTITLE5=SAGA-
TTITLE6=Why?
TTITLE7=いいわけ?
TTITLE8=Heaven
TTITLE9=君だけのTomorrow
TTITLE10=フォローマン
EXTD=
EXTT0=
EXTT1=
EXTT2=
EXTT3=
EXTT4=
EXTT5=
EXTT6=
EXTT7=
EXTT8=
EXTT9=
EXTT10=
PLAYORDER=
